# xmcd
#
# Track frame offsets: 
#        150
#        25352
#        49525
#        65078
#        87287
#        106203
#        142878
#        161609
#        183224
#        195841
#
# Disc length: 3082 seconds
#
# Revision: 7
# Processed by: cddbd v1.5.2PL0 Copyright (c) Steve Scherf et al.
# Submitted via: ExactAudioCopyFreeDBPlugin 1.0
#
DISCID=790c080a
DTITLE=Various Artist - 2002 - The Blues White Album
DYEAR=2002
DGENRE=Blues
TTITLE0=Jimmy Thackery and The Drivers - Why Don't We Do It In The Road 
TTITLE0=?
TTITLE1=Lucky Peterson - Yer Blues
TTITLE2=Andres Osborn - Happiness Is A Warm Gun
TTITLE3=Kenny Neal, Lucky Peterson, Tab Benoit - Revolution
TTITLE4=Maria Muldaur - Ob-La-Di, Ob-La-Da
TTITLE5=Joe Louis Walker - While My Guitar Gently Weeps
TTITLE6=T-Bone Walk - Don't Pass Me By
TTITLE7=Chris Duarte - I'm So Tired
TTITLE8=Collin Linden - Blackbird
TTITLE9=Charlie Musselwhite, Colin Linden - Dear Prudence
EXTD=
EXTT0=
EXTT1=
EXTT2=
EXTT3=
EXTT4=
EXTT5=
EXTT6=
EXTT7=
EXTT8=
EXTT9=
PLAYORDER=
